<?xml version="1.0" encoding="UTF-8" standalone="no"?>
<svg
   xmlns:dc="http://purl.org/dc/elements/1.1/"
   xmlns:cc="http://creativecommons.org/ns#"
   xmlns:rdf="http://www.w3.org/1999/02/22-rdf-syntax-ns#"
   xmlns:svg="http://www.w3.org/2000/svg"
   xmlns="http://www.w3.org/2000/svg"
   xmlns:sodipodi="http://sodipodi.sourceforge.net/DTD/sodipodi-0.dtd"
   xmlns:inkscape="http://www.inkscape.org/namespaces/inkscape"
   id="svg8"
   version="1.1"
   viewBox="0 0 261.12 355.20002"
   height="93.980003mm"
   width="69.087997mm"
   sodipodi:docname="CLUB-2.svg"
   inkscape:version="1.1-dev (60faa23, 2020-06-06)">
  <sodipodi:namedview
     pagecolor="#ffffff"
     bordercolor="#666666"
     borderopacity="1"
     objecttolerance="10"
     gridtolerance="10"
     guidetolerance="10"
     inkscape:pageopacity="0"
     inkscape:pageshadow="2"
     inkscape:window-width="774"
     inkscape:window-height="485"
     id="namedview16"
     showgrid="false"
     inkscape:zoom="0.20011044"
     inkscape:cx="0.62211308"
     inkscape:cy="130.43898"
     inkscape:window-x="0"
     inkscape:window-y="0"
     inkscape:window-maximized="0"
     inkscape:current-layer="svg8" />
  <title
     id="title8745">Vector Playing Cards</title>
  <defs
     id="defs2" />
  <metadata
     id="metadata5">
    <rdf:RDF>
      <cc:Work
         rdf:about="">
        <dc:format>image/svg+xml</dc:format>
        <dc:type
           rdf:resource="http://purl.org/dc/dcmitype/StillImage" />
        <dc:title>Vector Playing Cards</dc:title>
        <dc:creator>
          <cc:Agent>
            <dc:title>Chris Aguilar</dc:title>
          </cc:Agent>
        </dc:creator>
        <dc:rights>
          <cc:Agent>
            <dc:title>Copyright 2011, 017</dc:title>
          </cc:Agent>
        </dc:rights>
        <dc:publisher>
          <cc:Agent>
            <dc:title>Chris Aguilar</dc:title>
          </cc:Agent>
        </dc:publisher>
        <dc:description>Vector Playing Cards</dc:description>
        <dc:contributor>
          <cc:Agent>
            <dc:title>Chris Aguilar</dc:title>
          </cc:Agent>
        </dc:contributor>
        <cc:license
           rdf:resource="https://opensource.org/licenses/lgpl-3.0.html" />
      </cc:Work>
    </rdf:RDF>
  </metadata>
  <g
     transform="matrix(1.0966323,0,0,1.0679544,1237.5415,-3.0407687)"
     id="layer1">
    <g
       id="CLUB-2"
       transform="matrix(1.07145,0,0,1.07009,-1908.25,1167.5)">
      <g
         transform="matrix(0.995538,0,0,0.996801,468.488,-1457.46)"
         id="layer1-33-1-8-0-7">
        <rect
           ry="10.664032"
           rx="10.677567"
           style="display:inline;fill:#ffffff;fill-opacity:1;stroke:none;stroke-width:1.00057;stroke-miterlimit:4;stroke-dasharray:none;stroke-opacity:1"
           id="rect6355-6-85-4-0-5"
           width="223.22835"
           height="311.81104"
           x="260.43304"
           y="370.27557" />
      </g>
      <path
         style="display:inline;opacity:1"
         id="path147-0-8-1-6-7-2-1-6-3"
         d="m 838.87056,-1055.3647 c -9.77449,0.2122 -14.15744,11.2173 -6.91839,19.7633 1.04989,1.2465 1.15822,1.9619 -0.76458,0.7645 -4.87384,-3.2592 -14.21924,-1.1166 -14.69781,8.8473 -0.59114,12.2769 16.56286,15.8143 19.78372,2.7597 0.17004,-1.3774 1.28941,-1.346 1.01952,0.6091 -0.29368,5.3064 -1.95085,10.2661 -4.22863,15.1025 3.83908,0 8.12954,0 11.6202,0 -2.27768,-4.8364 -3.93495,-9.7961 -4.22864,-15.1025 -0.2699,-1.9551 0.84949,-1.9865 1.01953,-0.6091 3.22086,13.0546 20.37487,9.5172 19.78372,-2.7597 -0.47846,-9.9639 -9.82396,-12.1065 -14.69781,-8.8473 -1.92279,1.1974 -1.81448,0.482 -0.76458,-0.7645 7.23906,-8.546 2.8561,-19.551 -6.9183,-19.7633 0,-10e-5 0,0 -0.01,0 z" />
      <path
         style="display:inline;opacity:1"
         id="path147-0-8-1-6-1-4-5-4-2"
         d="m 838.87056,-809.73166 c -9.77448,-0.21226 -14.15744,-11.21726 -6.91838,-19.76328 1.0499,-1.24653 1.15822,-1.96187 -0.76458,-0.76453 -4.87385,3.2592 -14.21926,1.11663 -14.69782,-8.84728 -0.59115,-12.27694 16.56287,-15.81426 19.78373,-2.75966 0.17004,1.37736 1.28941,1.34593 1.01952,-0.60917 -0.29368,-5.30641 -1.95084,-10.26605 -4.22863,-15.10252 3.83908,0 8.12955,0 11.6202,0 -2.27768,4.83647 -3.93495,9.79611 -4.22864,15.10252 -0.26989,1.9551 0.84949,1.98653 1.01953,0.60917 3.22086,-13.0546 20.37487,-9.51728 19.78372,2.75966 -0.47846,9.96391 -9.82396,12.10648 -14.69781,8.84728 -1.92279,-1.19734 -1.81447,-0.482 -0.76458,0.76453 7.23906,8.54602 2.8561,19.55101 -6.91829,19.76328 0,6e-5 0,-5e-5 -0.01,0 z" />
      <path
         style="display:inline;opacity:1"
         id="path147-6-9-8-7-0-5-4-9-1"
         d="m 932.85252,-827.36914 c 3.90977,-0.0884 5.66301,-4.67386 2.76739,-8.2347 -0.42002,-0.51939 -0.46332,-0.81745 0.30583,-0.31855 1.94956,1.358 5.68771,0.46525 5.87915,-3.68638 0.23644,-5.11539 -6.6252,-6.58927 -7.91353,-1.14986 -0.0677,0.57391 -0.51579,0.56082 -0.40777,-0.25381 0.11747,-2.21101 0.7803,-4.27752 1.69142,-6.29272 -1.54926,0 -3.09862,0 -4.64787,0 0.91112,2.0152 1.57394,4.08171 1.69142,6.29272 0.10801,0.81463 -0.33978,0.82772 -0.40777,0.25381 -1.28833,-5.43941 -8.14997,-3.96553 -7.91353,1.14986 0.19144,4.15163 3.92958,5.04438 5.87914,3.68638 0.76916,-0.4989 0.72585,-0.20084 0.30583,0.31855 -2.89562,3.56084 -1.14238,8.14624 2.7673,8.2347 9.9e-4,2e-5 0,-2e-5 0,0 z" />
      <path
         style="display:inline;opacity:1"
         id="path147-6-9-8-7-4-5-9-2-7"
         d="m 744.89758,-1038.5561 c -3.90978,0.088 -5.66302,4.6739 -2.7674,8.2347 0.42002,0.5194 0.46333,0.8175 -0.30583,0.3186 -1.94956,-1.358 -5.68769,-0.4653 -5.87913,3.6863 -0.23644,5.1154 6.62519,6.5893 7.91352,1.1499 0.0677,-0.5739 0.51578,-0.5608 0.40777,0.2538 -0.11748,2.211 -0.7803,4.2775 -1.69142,6.2927 1.54925,0 3.09861,0 4.64787,0 -0.91112,-2.0152 -1.57395,-4.0817 -1.69142,-6.2927 -0.10802,-0.8146 0.33977,-0.8277 0.40777,-0.2538 1.28833,5.4394 8.14997,3.9655 7.91353,-1.1499 -0.19144,-4.1516 -3.92959,-5.0443 -5.87915,-3.6863 -0.76915,0.4989 -0.72585,0.2008 -0.30583,-0.3186 2.89562,-3.5608 1.14238,-8.1462 -2.76729,-8.2347 -10e-4,0 0,0 0,0 z" />
      <path
         style="opacity:1"
         id="path15-9-1-0-1"
         d="m 735.04977,-1041.7521 0.16008,-2.0284 c 0.50554,-6.2682 1.85071,-8.3828 9.48051,-14.9264 3.70419,-3.1719 4.91885,-4.737 5.08909,-6.5527 0.48512,-4.2827 -3.29971,-5.6194 -5.76486,-5.639 -3.19478,-0.029 -6.80938,1.9175 -5.08402,6.4418 l -3.58513,1.0743 c -0.72057,-4.2202 0.0209,-8.1792 3.37528,-9.9361 4.47982,-2.2909 10.22417,-1.3928 13.12457,2.2164 1.94936,2.4214 2.39476,5.7721 1.34905,8.3945 -3.0552,6.6989 -13.41895,9.6463 -14.27402,17.3973 h 11.45426 v -4.3153 h 3.37527 v 7.9441 l -18.70008,-0.07 z m 0,0" />
      <path
         style="opacity:1"
         id="path15-5-7-4-9-4"
         d="m 942.19967,-824.17315 -0.16008,2.02849 c -0.50554,6.26809 -1.85071,8.3827 -9.48051,14.92631 -3.7042,3.17192 -4.91885,4.737 -5.08909,6.55277 -0.48512,4.28276 3.29971,5.61937 5.76486,5.639 3.19478,0.0289 6.80938,-1.91754 5.08401,-6.44182 l 3.58513,-1.07426 c 0.72058,4.22006 -0.0209,8.17916 -3.37527,9.93612 -4.47982,2.29085 -10.22417,1.39273 -13.12457,-2.21649 -1.94936,-2.42133 -2.39476,-5.77208 -1.34905,-8.39446 3.0552,-6.69891 13.41895,-9.64635 14.27402,-17.39738 h -11.45426 v 4.31546 h -3.37527 v -7.94421 l 18.70008,0.0708 z m 0,0" />
    </g>
  </g>
  <g
     id="g862"
     transform="translate(-372.02855,139.06211)"
     sodipodi:insensitive="true">
    <rect
       style="opacity:1;vector-effect:none;fill:#006614;fill-opacity:1;stroke:none;stroke-width:1.74801;stroke-linecap:butt;stroke-linejoin:miter;stroke-miterlimit:4;stroke-dasharray:none;stroke-dashoffset:0;stroke-opacity:1"
       id="rect22845-2"
       width="1659.9126"
       height="794.39795"
       x="-356.47275"
       y="-1029.6816"
       rx="144.48164"
       ry="124.68219" />
    <text
       id="text5630-0"
       y="-935.81342"
       x="472.19449"
       style="font-style:normal;font-variant:normal;font-weight:normal;font-stretch:normal;font-size:42.6667px;line-height:125%;font-family:Carlito;-inkscape-font-specification:'Carlito, Normal';text-align:center;letter-spacing:0px;word-spacing:0px;writing-mode:lr-tb;text-anchor:middle;fill:#ffffff;fill-opacity:1;stroke:none;stroke-width:1.06667px;stroke-linecap:butt;stroke-linejoin:miter;stroke-opacity:1"
       xml:space="preserve"
       onclick=""><tspan
         style="font-style:normal;font-variant:normal;font-weight:normal;font-stretch:normal;font-size:48px;line-height:125%;font-family:Carlito;-inkscape-font-specification:'Carlito, Normal';text-align:center;writing-mode:lr-tb;text-anchor:middle;fill:#ffffff;fill-opacity:1;stroke-width:1.06667px"
         id="tspan4923"
         y="-935.81342"
         x="472.19449"
         sodipodi:role="line">Single Playing Card from:</tspan><tspan
         style="font-style:normal;font-variant:normal;font-weight:normal;font-stretch:normal;font-size:48px;line-height:125%;font-family:Carlito;-inkscape-font-specification:'Carlito, Normal';text-align:center;writing-mode:lr-tb;text-anchor:middle;fill:#ffffff;fill-opacity:1;stroke-width:1.06667px"
         id="tspan5035"
         y="-875.81342"
         x="472.19449"
         sodipodi:role="line">Standard Edition - Color Set - Bordered </tspan><tspan
         y="-820.48004"
         x="472.19449"
         sodipodi:role="line"
         id="tspan12311" /><tspan
         style="font-style:normal;font-variant:normal;font-weight:normal;font-stretch:normal;font-size:48px;line-height:125%;font-family:Carlito;-inkscape-font-specification:'Carlito, Normal';text-align:center;writing-mode:lr-tb;text-anchor:middle;fill:#ffaaaa;fill-opacity:1;stroke-width:1.06667px"
         id="tspan4927"
         y="-762.48004"
         x="472.19449"
         sodipodi:role="line">Copyright 2011, 2020 - Chris Aguilar - conjurenation@gmail.com</tspan><tspan
         id="tspan12344"
         y="-707.14667"
         x="472.19449"
         sodipodi:role="line" /><tspan
         style="font-style:normal;font-variant:normal;font-weight:normal;font-stretch:normal;font-size:48px;line-height:125%;font-family:Carlito;-inkscape-font-specification:'Carlito, Normal';text-align:center;writing-mode:lr-tb;text-anchor:middle;fill:#ffffff;fill-opacity:1;stroke-width:1.06667px"
         id="tspan4931"
         y="-649.14667"
         x="472.19449"
         sodipodi:role="line">https://totalnonsense.com/open-source-vector-playing-cards/</tspan><tspan
         id="tspan4929"
         y="-593.81329"
         x="472.19449"
         sodipodi:role="line" /><tspan
         style="font-style:normal;font-variant:normal;font-weight:normal;font-stretch:normal;font-size:48px;line-height:125%;font-family:Carlito;-inkscape-font-specification:'Carlito, Normal';text-align:center;writing-mode:lr-tb;text-anchor:middle;fill:#ffaaaa;fill-opacity:1;stroke-width:1.06667px"
         id="tspan4919"
         y="-535.81329"
         x="472.19449"
         sodipodi:role="line">Licensed under:</tspan><tspan
         id="tspan1594-5"
         style="font-style:normal;font-variant:normal;font-weight:normal;font-stretch:normal;font-size:48px;line-height:125%;font-family:Carlito;-inkscape-font-specification:'Carlito, Normal';text-align:center;writing-mode:lr-tb;text-anchor:middle;fill:#ffaaaa;fill-opacity:1;stroke-width:1.06667px"
         y="-475.81329"
         x="472.19449"
         sodipodi:role="line">LGPL 3.0</tspan><tspan
         style="font-style:normal;font-variant:normal;font-weight:normal;font-stretch:normal;font-size:48px;line-height:125%;font-family:Carlito;-inkscape-font-specification:'Carlito, Normal';text-align:center;writing-mode:lr-tb;text-anchor:middle;fill:#ffaaaa;fill-opacity:1;stroke-width:1.06667px"
         y="-415.81329"
         x="472.19449"
         sodipodi:role="line"
         id="tspan12253-3">https://www.gnu.org/licenses/lgpl-3.0.html</tspan><tspan
         id="tspan5031"
         y="-360.47995"
         x="472.19449"
         sodipodi:role="line" /><tspan
         style="font-style:normal;font-variant:normal;font-weight:normal;font-stretch:normal;font-size:48px;line-height:125%;font-family:Carlito;-inkscape-font-specification:'Carlito, Normal';text-align:center;writing-mode:lr-tb;text-anchor:middle;fill:#ffffff;fill-opacity:1;stroke-width:1.06667px"
         id="tspan5033"
         y="-302.47992"
         x="472.19449"
         sodipodi:role="line">Each Card Measures (63mm x 88mm)</tspan><tspan
         id="tspan5634-6"
         y="-247.14656"
         x="472.19449"
         sodipodi:role="line" /></text>
  </g>
</svg>
