<svg xmlns="http://www.w3.org/2000/svg" version="1.1" xmlns:xlink="http://www.w3.org/1999/xlink" xmlns:svgjs="http://svgjs.com/svgjs" width="1440" height="560" preserveAspectRatio="none" viewBox="0 0 1440 560"><g mask="url(&quot;#SvgjsMask1022&quot;)" fill="none"><use xlink:href="#SvgjsG1043" transform="translate(0, 0)" fill="rgba(199, 139, 94, 0.49)"></use><use xlink:href="#SvgjsG1043" transform="translate(0, 480)" fill="rgba(199, 139, 94, 0.49)"></use><use xlink:href="#SvgjsG1043" transform="translate(480, 0)" fill="rgba(199, 139, 94, 0.49)"></use><use xlink:href="#SvgjsG1043" transform="translate(480, 480)" fill="rgba(199, 139, 94, 0.49)"></use><use xlink:href="#SvgjsG1043" transform="translate(960, 0)" fill="rgba(199, 139, 94, 0.49)"></use><use xlink:href="#SvgjsG1043" transform="translate(960, 480)" fill="rgba(199, 139, 94, 0.49)"></use></g><defs><mask id="SvgjsMask1022"><rect width="1440" height="560" fill="#ffffff"></rect></mask><g id="SvgjsG1023"><path d="M2.524 8.637H0.014V7.308h2.51v1.329zM3.656 4.576L1.884 2.804l0.935-0.935 1.772 1.772-0.935 0.935z m0 6.817l0.935 0.935-1.772 1.773-0.934-0.936 1.771-1.772z m4.997-8.884h-1.33V-0.002h1.33v2.511z m-1.33 10.952h1.33v2.51h-1.33v-2.509zM12.344 4.576l-0.96-0.935 1.796-1.772 0.935 0.935-1.772 1.772z m0 6.792l1.771 1.797-0.935 0.936-1.771-1.774 0.936-0.96z m3.643-4.06v1.329h-2.51V7.308h2.509z"></path><path d="M3.702 7.984a4.184 4.184 0 1 0 8.368 0 4.184 4.184 0 1 0-8.368 0"></path></g><g id="SvgjsG1039"><path d="M6.99 1.997c0.208-0.693-0.181-1.425-0.876-1.637-0.691-0.214-1.425 0.174-1.638 0.87-0.212 0.695 0.181 1.427 0.872 1.638 0.695 0.214 1.429-0.177 1.642-0.871"></path><path d="M9.447 6.033l-0.497-3.072L11.99 1.183c0.144-0.08 0.257-0.21 0.305-0.374A0.634 0.634 0 0 0 11.869 0.026a0.63 0.63 0 0 0-0.51 0.07L7.025 2.64c-0.152 0.08-0.284 0.193-0.397 0.325l-1.827 2.453-2.517-0.3a0.629 0.629 0 0 0-0.37 0.341 0.626 0.626 0 0 0 0.325 0.827 0.596 0.596 0 0 0 0.411 0.033l2.562 0.291a0.645 0.645 0 0 0 0.245-0.168l1.04-1.306 0.497 2.819A1.407 1.407 0 0 0 7.728 8.89l2.234 0.666 0.329 2.566a0.82 0.82 0 0 0 0.535 0.651c0.426 0.152 0.892-0.074 1.041-0.5 0.047-0.127 0.055-0.267 0.036-0.397l-0.403-3.139a0.829 0.829 0 0 0-0.405-0.555l-1.39-0.418 2.301-1.393L14.818 7.616c0.018 0.008 0.035 0.016 0.051 0.024 0.426 0.148 0.892-0.074 1.04-0.499a0.819 0.819 0 0 0-0.425-1.012l-3.206-1.429c-0.017-0.004-0.027-0.012-0.043-0.016-0.23-0.08-0.475-0.051-0.67 0.055l-2.119 1.294z"></path><path d="M3.368 7.178H0v0.919h2.592v2.615H5.288v2.436h2.613V16h3.437v-0.919H8.822V12.229H6.207v-2.438h-2.691V7.178h-0.148z"></path></g><g id="SvgjsG1034"><path d="M5.109 4.103a1.358 1.358 0 1 0 0-2.72 1.358 1.358 0 0 0 0 2.72"></path><path d="M0.1 11.527c0.32 0 0.622-0.071 0.897-0.195a2.196 2.196 0 0 1 1.86 0 2.208 2.208 0 0 0 1.804 0 2.192 2.192 0 0 1 1.86 0 2.215 2.215 0 0 0 1.803 0 2.204 2.204 0 0 1 1.856 0 2.222 2.222 0 0 0 1.806 0 2.24 2.24 0 0 1 1.731-0.057A2.475 2.475 0 0 0 11.893 7.129l-0.275 0.03c-0.302 1.234-1.54 1.287-1.54 1.287H4.427l-0.471-0.277 1.137-1.911 1.248 0.72c0.747 0.484 1.134-0.196 1.135-0.196L8.729 4.747c0.539-0.889-0.613-1.6-1.156-0.711l-0.871 1.431-2.08-1.151c-1.44-0.805-2.053 0.526-2.053 0.527L0.933 7.644c-0.277 0.58-0.028 0.828-0.028 0.829H0.098v3.058z m14.638 2.702c-0.32 0-0.628-0.071-0.9-0.195a2.187 2.187 0 0 0-1.858 0 2.217 2.217 0 0 1-1.804 0 2.197 2.197 0 0 0-1.858 0 2.21 2.21 0 0 1-1.804 0 2.187 2.187 0 0 0-1.858 0 2.21 2.21 0 0 1-1.806 0 2.176 2.176 0 0 0-1.854 0 2.222 2.222 0 0 1-0.898 0.195v-1.351c0.32 0 0.626-0.071 0.901-0.195a2.204 2.204 0 0 1 1.854 0 2.21 2.21 0 0 0 1.807 0 2.21 2.21 0 0 1 1.861 0 2.176 2.176 0 0 0 1.803 0 2.222 2.222 0 0 1 0.929-0.207c0.331 0 0.645 0.076 0.928 0.207a2.194 2.194 0 0 0 1.808 0 2.21 2.21 0 0 1 1.856 0c0.272 0.124 0.58 0.196 0.9 0.195v1.351z"></path></g><g id="SvgjsG1042"><path d="M14.704 13.605c0 0.355-0.294 0.64-0.646 0.64H3.52v0.432h10.536a1.075 1.075 0 0 0 1.082-1.069l-0.432-0.003z m-3.147-9.808A1.059 1.059 0 1 0 11.552 1.68a1.059 1.059 0 0 0 0.005 2.118M4.848 12.912L1.323 9.376v0.619l3.28 3.29c0.376 0.408 1.021-0.064 1.021-0.064l-0.309-0.331s-0.304 0.2-0.464 0.032l-0.006-0.012z m0.112-6.664H1.355v0.432H4.96v-0.432z m9.744-1.029l0.411 0.173L11.024 13.629h-0.454L14.704 5.219z"></path><path d="M7.912 4.584l-1.648 1.901a0.531 0.531 0 1 1-0.765-0.736l1.776-2.045a0.533 0.533 0 0 1 0.41-0.192H10.256a0.688 0.688 0 0 1 0.485 0.195L12.379 5.344l1.36-1.355a0.549 0.549 0 0 1 0.779 0.768L12.88 6.411c-0.496 0.496-0.896 0.074-0.896 0.074l-1.008-1.008-1.568 1.814 1.44 1.44s0.301 0.282 0.128 0.842L10.17 13.168a0.688 0.688 0 1 1-1.333-0.31l0.662-2.949-1.632-1.591-1.408 1.568s-0.229 0.28-0.832 0.26l-2.851 0.006a0.688 0.688 0 0 1-0.68-0.536 0.672 0.672 0 0 1 0.685-0.832l2.453 0.011 3.632-4.208-0.949-0.003z"></path></g><g id="SvgjsG1041"><path d="M14.668 5.394A1.332 1.332 0 0 0 16 4.062c0-0.735-0.596-1.328-1.332-1.328-0.733 0-1.33 0.594-1.331 1.328s0.597 1.332 1.331 1.332zM14.011 14.984a1.353 1.353 0 0 0 1.855-0.472l-0.465-0.279c-0.228 0.384-0.727 0.506-1.109 0.279L0.275 6.282 0 6.752 14.011 14.984z"></path><path d="M8.937 0.301c-0.81-0.544-1.904-0.33-2.45 0.483-0.301 0.444-0.383 1.006-0.236 1.462l0.931 3.05-2.811 0.896a1.085 1.085 0 0 0-0.67 0.877c-0.073 0.594 0.37 0.987 0.964 1.057 0.135 0.016 0.226-0.024 0.352-0.055l3.837-1.269c0.281-0.102 0.589-0.382 0.619-0.626 0.021-0.177 0.078-0.326 0.042-0.432l-0.584-2.086 2.306 1.371 0.279 2c0.024 0.35 0.183 0.601 0.452 0.751L14.984 9.541a0.683 0.683 0 0 0 0.928-0.275c0.183-0.33 0.059-0.75-0.272-0.932l-2.383-1.391-0.275-3.565a1.453 1.453 0 0 0-0.612-1.045L8.938 0.301z"></path></g><g id="SvgjsG1029"><path d="M5.876 2.963c0.233-0.778-0.203-1.601-0.983-1.839-0.776-0.24-1.601 0.196-1.842 0.977-0.238 0.781 0.203 1.603 0.98 1.841 0.781 0.241 1.605-0.198 1.845-0.979"></path><path d="M8.637 7.498l-0.559-3.452L11.494 2.048c0.162-0.09 0.289-0.236 0.343-0.42A0.712 0.712 0 0 0 11.358 0.748a0.708 0.708 0 0 0-0.573 0.079L5.916 3.686c-0.171 0.09-0.319 0.217-0.446 0.365l-2.054 2.756-2.827-0.337a0.707 0.707 0 0 0-0.416 0.383 0.704 0.704 0 0 0 0.365 0.929 0.669 0.669 0 0 0 0.462 0.037l2.878 0.327a0.724 0.724 0 0 0 0.276-0.189l1.168-1.467 0.559 3.167A1.58 1.58 0 0 0 6.706 10.707l2.509 0.749 0.371 2.883a0.922 0.922 0 0 0 0.601 0.732c0.478 0.171 1.003-0.083 1.169-0.562 0.053-0.143 0.062-0.3 0.041-0.446l-0.453-3.527a0.931 0.931 0 0 0-0.455-0.624l-1.562-0.469 2.585-1.566L14.671 9.276c0.02 0.009 0.039 0.018 0.058 0.028 0.478 0.166 1.002-0.083 1.169-0.562a0.92 0.92 0 0 0-0.478-1.136l-3.602-1.606c-0.019-0.005-0.03-0.014-0.048-0.018-0.259-0.09-0.534-0.058-0.753 0.062l-2.381 1.454h0.001z"></path></g><g id="SvgjsG1037"><path d="M7.671 2.184a1.063 1.063 0 0 0 1.065-1.063c0-0.586-0.477-1.064-1.065-1.064a1.065 1.065 0 0 0-1.065 1.064 1.062 1.062 0 0 0 1.065 1.063M14.346 14.389a2.295 2.295 0 0 0-0.97-0.216c-0.34 0-0.671 0.08-0.97 0.216-0.284 0.124-0.603 0.2-0.938 0.2-0.334 0-0.658-0.076-0.943-0.2a2.296 2.296 0 0 0-0.97-0.216c-0.345 0-0.676 0.08-0.969 0.216-0.288 0.124-0.607 0.2-0.942 0.201-0.335 0-0.654-0.076-0.943-0.201a2.307 2.307 0 0 0-0.969-0.216c-0.342 0-0.673 0.08-0.969 0.216-0.286 0.124-0.605 0.2-0.938 0.201-0.335 0-0.658-0.076-0.943-0.201a2.309 2.309 0 0 0-0.969-0.216c-0.346 0-0.677 0.08-0.969 0.216-0.291 0.124-0.61 0.201-0.944 0.201V16c0.334 0 0.653-0.072 0.944-0.2a2.267 2.267 0 0 1 0.969-0.218c0.344 0 0.675 0.08 0.968 0.218A2.294 2.294 0 0 0 3.824 16c0.333 0 0.652-0.072 0.938-0.2a2.294 2.294 0 0 1 0.969-0.218c0.344 0 0.675 0.08 0.97 0.218A2.31 2.31 0 0 0 7.643 16c0.334 0 0.654-0.072 0.942-0.2a2.28 2.28 0 0 1 0.97-0.218c0.346 0 0.677 0.08 0.969 0.218A2.307 2.307 0 0 0 11.468 16c0.335 0 0.654-0.072 0.938-0.2a2.309 2.309 0 0 1 0.97-0.218c0.347 0 0.677 0.08 0.97 0.218a2.325 2.325 0 0 0 0.944 0.2v-1.411c-0.335 0-0.654-0.076-0.944-0.201"></path><path d="M14.369 0.014a0.207 0.207 0 0 0-0.22 0.046L10.271 3.942a0.483 0.483 0 0 0-0.198-0.043H8.602c-0.251-0.255-1.58-1.584-1.581-1.584-0.068-0.068-0.156-0.107-0.243-0.131-0.306-0.264-0.765-0.261-1.056 0.032L3.422 4.512a0.478 0.478 0 0 0-0.14 0.339v1.687H0.051v0.535H3.282v3.768a0.857 0.857 0 0 0 0.856 0.858c0.471 0 0.864-0.384 0.864-0.859V7.074H7.605v4.996H0.051v0.911h8.091V7.074h0.927v-0.536H5.002V6.059l2.143-2.145 0.874 0.875c0.096 0.098 0.23 0.15 0.37 0.15h1.684a0.52 0.52 0 0 0 0.522-0.52c0-0.068-0.016-0.134-0.039-0.195L14.091 0.691v12.306h0.404V0.204c0-0.083-0.051-0.156-0.126-0.19"></path></g><g id="SvgjsG1038"><path d="M12.535 1.996h-3.752l-0.998 0.979h0.998v0.218c0 1.142 0.926 2.068 2.068 2.068s2.068-0.926 2.068-2.068v-1.197h-0.384z m0.384-0.654H8.692L7.785 0h5.134z m1.574 4.644h-0.2L9.091 12.59h4.24v1.161H8.003V16h7.578V7.128c0-0.63-0.487-1.142-1.088-1.142zM0.56 0.678v4.202l0.164 0.124L3 6.738c0.036 0.03 0.072 0.06 0.112 0.085l0.021 0.016v-1.835h0.897V0.678H0.56z m3.253 4.108h-0.68V2.637L0.846 0.895H3.813v3.892z"></path><path d="M12.67 5.963H7.304v0.003c-0.248 0.001-0.49 0.086-0.647 0.285-0.616 0.778-1.23 1.556-1.846 2.333-0.908-0.691-1.816-1.382-2.723-2.075-0.427-0.325-1.096-0.067-1.341 0.351-0.294 0.503-0.073 1.018 0.351 1.34l3.25 2.475c0.032 0.027 0.064 0.054 0.1 0.076 0.013 0.011 0.026 0.02 0.039 0.031 0.189 0.144 0.427 0.173 0.654 0.124 0.206-0.024 0.4-0.109 0.533-0.278l0.026-0.033c0.042-0.043 0.078-0.09 0.109-0.138L7.753 8v4.203l4.917-6.24z"></path></g><g id="SvgjsG1032"><path d="M1.704 6.537a0.658 0.658 0 1 0 1.316 0 0.658 0.658 0 1 0-1.316 0"></path><path d="M11.364 4.442a0.658 0.658 0 1 0 1.316 0 0.658 0.658 0 1 0-1.316 0"></path><path d="M12.05 8.032l-0.155 0.745 0.766 0.196 0.66-1.216 2.249-0.489L15.393 6.455l-0.772 0.168c0.243-0.579-0.162-0.817-0.162-0.816L12.839 4.738l-0.651 0.464-0.632 0.965s-0.305 0.466-0.019 0.715l0.03 0.403-7.612 1.65-0.14-0.377c0.157-0.345-0.314-0.644-0.314-0.644L2.527 7.298 1.741 7.145 0.709 8.789s-0.27 0.384 0.191 0.81l-0.772 0.168 0.177 0.813 2.248-0.487 1.105 0.833 0.616-0.495-0.45-0.614 8.226-1.785z m-8.828 1.063l-0.862-0.414 0.213-0.658 0.866 0.408 0.211 0.572-0.427 0.093z m9.076-1.968l-0.428 0.093-0.044-0.608 0.619-0.73 0.467 0.511-0.614 0.734z"></path><path d="M8.651 12.262V9.644l-0.802-0.701-0.802 0.701v2.618h1.603z"></path></g><g id="SvgjsG1027"><path d="M6.764 3.252l-0.16 0.349a0.646 0.646 0 0 1-0.582 0.367H5.644A1.213 1.213 0 0 0 7.84 3.273V3.215h-1.018a0.058 0.058 0 0 0-0.058 0.04"></path><path d="M6.022 3.661a0.335 0.335 0 0 0 0.305-0.189l0.16-0.349c0.058-0.131 0.185-0.221 0.335-0.221h1.251a1.488 1.488 0 1 0-2.877 0.759h0.829zM7.059 7.913l3.229-0.146 0.266 1.029c-1.318 0.189-3.025 0.218-3.834 0.218l0.339-1.101z m0.596-1.961l2.138-0.087 0.175 0.654c-0.582 0.029-1.61 0.081-2.528 0.136l0.215-0.703z m2.479 4.218c1.114-0.038 4.022-0.308 4.823-1.076-0.361-1.108-1.782-1.181-3.086-0.617a4.218 4.218 0 0 1-0.859 0.24l-0.269-1.028a0.625 0.625 0 0 0 0.342-0.588 0.625 0.625 0 0 0-0.65-0.602l-0.195-0.756a0.631 0.631 0 0 0-0.518-1.12s-2.758 0.026-3.622 0.258S4.945 6.563 4.945 6.563L4.189 9.018H0.596v1.152h9.536z"></path><path d="M13.091 11.626s1.953-0.025 1.953-1.934c0-0.079-0.007-0.148-0.014-0.221-1.222 0.887-4.479 1.028-4.89 1.042H0.596v1.506c0.233 0 0.47-0.052 0.68-0.146 0.343-0.16 0.727-0.247 1.105-0.247 0.375 0 0.756 0.087 1.091 0.243a1.677 1.677 0 0 0 1.373 0.003 2.604 2.604 0 0 1 2.202-0.004 1.651 1.651 0 0 0 1.372 0.004 2.593 2.593 0 0 1 2.196-0.004c0.221 0.102 0.46 0.15 0.691 0.149 0.029 0 0.054-0.004 0.082-0.004l0.285 1.091c-0.122 0.023-0.244 0.038-0.37 0.038-0.313 0-0.615-0.068-0.883-0.189a2.144 2.144 0 0 0-1.811 0 2.129 2.129 0 0 1-1.76 0 2.145 2.145 0 0 0-1.809 0 2.127 2.127 0 0 1-1.754 0c-0.272-0.128-0.582-0.204-0.905-0.204-0.32 0-0.628 0.076-0.902 0.204-0.269 0.121-0.567 0.189-0.88 0.189v1.318c0.314 0 0.611-0.07 0.882-0.189 0.273-0.128 0.582-0.204 0.902-0.204 0.323 0 0.633 0.076 0.904 0.204a2.128 2.128 0 0 0 1.754 0c0.276-0.128 0.585-0.204 0.907-0.204 0.324 0 0.633 0.076 0.906 0.204a2.124 2.124 0 0 0 1.76 0c0.272-0.128 0.579-0.204 0.902-0.204 0.324 0 0.634 0.076 0.906 0.204a2.141 2.141 0 0 0 1.76 0 2.145 2.145 0 0 1 1.809 0c0.268 0.119 0.567 0.189 0.882 0.189v-1.318c-0.313 0-0.614-0.068-0.882-0.189a2.145 2.145 0 0 0-1.811 0c-0.022 0.009-0.044 0.015-0.064 0.024L11.84 11.927a3.68 3.68 0 0 0 0.145-0.055c0.345-0.16 0.727-0.247 1.106-0.247"></path></g><g id="SvgjsG1036"><path d="M11.159 0c-0.758 0-1.375 0.625-1.376 1.392 0 0.772 0.617 1.394 1.376 1.394 0.762 0 1.383-0.622 1.383-1.394C12.541 0.625 11.921 0 11.159 0M0.753 9.609c-0.12-0.195-0.37-0.253-0.56-0.131-0.193 0.119-0.25 0.372-0.131 0.567a0.409 0.409 0 0 0 0.564 0.13 0.415 0.415 0 0 0 0.127-0.566m0.283 1.137c-0.118-0.191-0.368-0.249-0.563-0.127a0.412 0.412 0 0 0-0.126 0.564 0.4 0.4 0 0 0 0.557 0.13 0.415 0.415 0 0 0 0.132-0.567m0.282 1.14c-0.118-0.195-0.375-0.253-0.561-0.132-0.195 0.12-0.25 0.373-0.132 0.567 0.118 0.191 0.374 0.249 0.562 0.129a0.411 0.411 0 0 0 0.131-0.564m0.279 1.138a0.405 0.405 0 0 0-0.558-0.133 0.415 0.415 0 0 0-0.131 0.567c0.118 0.195 0.368 0.253 0.563 0.133 0.187-0.12 0.247-0.374 0.126-0.567M8.213 15.341a0.416 0.416 0 0 0-0.268 0.519c0.072 0.22 0.301 0.336 0.513 0.27a0.42 0.42 0 0 0 0.268-0.519c-0.071-0.217-0.3-0.336-0.514-0.27m1.158 0.009c-0.214 0.065-0.33 0.297-0.262 0.514 0.069 0.22 0.3 0.34 0.512 0.27a0.415 0.415 0 0 0 0.263-0.519c-0.07-0.215-0.296-0.336-0.513-0.265m1.166 0.004a0.409 0.409 0 0 0-0.267 0.518c0.069 0.216 0.298 0.338 0.514 0.266 0.212-0.066 0.333-0.299 0.26-0.52a0.4 0.4 0 0 0-0.507-0.264m1.155 0.004a0.415 0.415 0 0 0-0.261 0.52c0.071 0.214 0.3 0.334 0.512 0.264a0.408 0.408 0 0 0 0.263-0.513 0.409 0.409 0 0 0-0.514-0.27M14.463 6.174h-2.408l-1.108-2.533a0.834 0.834 0 0 0-0.052-0.121c-0.004-0.007-0.008-0.012-0.008-0.016l-0.018-0.046-0.004 0.004c-0.206-0.44-0.636-0.755-1.146-0.775a1.003 1.003 0 0 0-0.279 0.024L3.39 4.147a0.684 0.684 0 0 0-0.508 0.824c0.082 0.371 0.442 0.599 0.808 0.516l4.039-0.971-3.069 5.118H1.375l0.728 2.892c0.025 0.087 0.025 0.106 0.052 0.152 0.103 0.17 0.32 0.224 0.485 0.12 0.09-0.052 0.147-0.145 0.164-0.239l0.435-1.34 0.016-0.055 2.024-0.007c0.403 0 0.748-0.112 0.953-0.454l0.93-1.558 2.072 2.085-0.879 3.496H11.397a0.358 0.358 0 0 0 0.357-0.354c0-0.154-0.095-0.263-0.214-0.329l-1.311-0.733 0.629-2.514s0.157-0.531-0.34-1.021l-1.695-1.716s0.907-1.506 1.488-2.473l0.675 1.548a0.668 0.668 0 0 0 0.251 0.294c0 0.004 0.007 0.004 0.007 0.009 0.107 0.069 0.235 0.112 0.373 0.112h2.832c0.379 0.004 0.682-0.309 0.685-0.685a0.68 0.68 0 0 0-0.672-0.69"></path></g><g id="SvgjsG1025"><path d="M6.515 16c0.255 0 0.46-0.208 0.46-0.466a0.461 0.461 0 0 0-0.46-0.463c-0.254 0-0.459 0.208-0.459 0.463 0 0.257 0.205 0.466 0.459 0.466z m3.718-0.01c0.255 0 0.461-0.21 0.461-0.47 0-0.257-0.206-0.466-0.461-0.466-0.253 0-0.458 0.209-0.458 0.466 0 0.26 0.205 0.47 0.458 0.471z m-4.626-1.376s-0.27-0.014-0.27-0.295v-0.026c0-0.277 0.27-0.296 0.27-0.295h5.516s0.271 0.026 0.271 0.295v0.026c0 0.27-0.271 0.295-0.271 0.295H5.607z m3.832-12.146c0.674 0 1.222-0.554 1.222-1.236C10.661 0.55 10.113 0 9.439 0c-0.674 0-1.222 0.55-1.222 1.232 0 0.682 0.548 1.237 1.222 1.236zM2.81 13.266A0.78 0.78 0 0 0 2.72 13.633c0 0.434 0.349 0.788 0.782 0.788 0.31 0 0.577-0.182 0.704-0.445l2.667-4.634-1.108-1.118L2.81 13.266z"></path><path d="M8.165 13.058c-0.116 0.263-0.361 0.445-0.648 0.445-0.396 0-0.718-0.354-0.717-0.787 0-0.136 0.03-0.26 0.083-0.37l1.069-2.062-2.086-2.275c-0.801-0.883-0.23-1.837-0.23-1.837l1.123-2.177-2.979 0.004c-0.33 0-0.591-0.292-0.591-0.649 0-0.354 0.262-0.645 0.591-0.645H12.797c0.326 0 0.588 0.292 0.588 0.649 0 0.357-0.263 0.645-0.588 0.645H9.357L7.716 7.152l1.671 1.812c0.585 0.616 0.206 1.309 0.206 1.309L8.165 13.058z"></path></g><g id="SvgjsG1028"><path d="M12.421 2.526c0.704 0 1.267-0.564 1.267-1.261A1.264 1.264 0 0 0 12.421 0c-0.697 0-1.261 0.567-1.261 1.265a1.26 1.26 0 0 0 1.261 1.261m-6.4 5.125l4.546-2.937c0.592-0.378 0.772-1.162 0.396-1.754-0.374-0.594-1.162-0.774-1.755-0.396l-3.351 2.165c-0.191 0.122-0.34 0.283-0.438 0.471L1.931 12.073C1.727 12.48 1.888 12.973 2.291 13.178a0.821 0.821 0 0 0 1.104-0.358L6.021 7.651z m8.853-0.481c0.6-0.376 0.787-1.168 0.409-1.77l-0.439 0.27a0.764 0.764 0 0 1-0.247 1.058L0.64 15.563 0.917 16l13.957-8.83z"></path></g><g id="SvgjsG1035"><path d="M4.83 7.808l-1.579 1.253-2.019 1.547c-0.576 0.452-1.048-0.092-1.048-0.092-0.448-0.588 0.067-0.973 0.066-0.973l2.517-1.968s0.275-0.287 0.999-0.081l1.064 0.315m2.949-2.516c-0.79 0-1.427-0.637-1.427-1.427s0.637-1.434 1.427-1.433 1.432 0.643 1.432 1.433-0.641 1.427-1.432 1.427M4.24 13.121a0.765 0.765 0 0 0-0.765-0.765 0.764 0.764 0 0 0-0.765 0.765 0.764 0.764 0 0 0 0.765 0.765 0.764 0.764 0 0 0 0.765-0.765m7.083 0a0.765 0.765 0 0 0-0.765-0.765c-0.421 0-0.763 0.342-0.763 0.765a0.764 0.764 0 1 0 1.528 0m-8.782-1.504c-0.098-0.271-0.14-0.566-0.073-0.865a1.55 1.55 0 0 1 0.508-0.824l10.582-8.423C13.816 1.316 14.132 1.2 14.476 1.2A1.522 1.522 0 0 1 16 2.726c0 0.492-0.224 0.928-0.58 1.209-0.126 0.11-0.31 0.096-0.417-0.031a0.298 0.298 0 0 1 0.034-0.427c0.228-0.167 0.372-0.442 0.372-0.751 0-0.515-0.419-0.934-0.932-0.934-0.219 0-0.411 0.073-0.569 0.19L10.833 4.432l-1.609 4.656 0.976 2.319c0.114-0.026 0.236-0.047 0.358-0.047 0.975 0 1.764 0.79 1.763 1.761 0 0.977-0.788 1.762-1.763 1.762a1.758 1.758 0 0 1-1.76-1.762 1.744 1.744 0 0 1 0.828-1.49L8.923 9.952l-0.059 0.179c-0.214 0.659-0.926 1.019-1.584 0.8l-3.266-1.077-0.638 0.509a0.95 0.95 0 0 0-0.316 0.507c-0.043 0.19-0.012 0.373 0.051 0.537 0.114-0.022 0.24-0.047 0.364-0.048 0.971 0 1.76 0.79 1.76 1.762 0 0.978-0.789 1.762-1.76 1.762s-1.764-0.785-1.764-1.762c0.001-0.637 0.323-1.196 0.83-1.504"></path></g><g id="SvgjsG1040"><path d="M7.626 3.541A1.056 1.056 0 1 0 7.622 1.424a1.056 1.056 0 0 0 0.004 2.117m-1.786 0.176a0.304 0.304 0 0 0-0.224-0.368l-0.88-0.208a0.301 0.301 0 0 0-0.368 0.217L3.632 6.421a0.304 0.304 0 0 0 0.224 0.368l0.883 0.211c0.16 0.04 0.325-0.059 0.362-0.224L5.84 3.712z m4.064 10.902v0.016a0.243 0.243 0 0 0 0.483 0.032l1.776-9.629v-0.022a0.24 0.24 0 0 0-0.24-0.24c-0.123 0-0.218 0.093-0.243 0.211L9.904 14.618zM4 13.987a0.741 0.741 0 0 0 1.443 0.363l1.28-5.292 1.219 5.259a0.741 0.741 0 0 0 1.447-0.346L7.715 6.986l0.144-0.616 0.109 0.486c0.099 0.315 0.387 0.347 0.387 0.347l1.722 0.439a0.507 0.507 0 0 0 0.224-0.992l-1.493-0.375-0.41-1.664c-0.197-0.928-1.085-0.906-1.084-0.905-0.864-0.021-1.078 0.885-1.079 0.884L4 13.987z" fill-rule="evenodd"></path></g><g id="SvgjsG1024"><path d="M12.872 14.056H9.025v-5.485L15.968 0H0l7.07 8.528v5.528h-3.773c-1.304 0.003-1.304 1.944 0 1.944H12.872c1.296 0 1.285-1.942 0-1.944zM8.021 4.809c-0.001-0.682 0.553-1.236 1.237-1.237 0.684 0 1.239 0.555 1.236 1.237 0.003 0.687-0.552 1.241-1.236 1.236-0.684 0.004-1.238-0.55-1.237-1.236z"></path></g><g id="SvgjsG1026"><path d="M8.688 6.116c0.878 0.204 1.538 0.96 1.538 1.857v6.893c0 0.213-0.183 0.384-0.402 0.384H5.872a0.395 0.395 0 0 1-0.4-0.384V7.973c0-0.9 0.654-1.657 1.54-1.857V3.031h1.676V6.116zM7.01 1.671h1.676v0.665h-1.676V1.671z"></path></g><g id="SvgjsG1033"><path d="M7.232 1.081a0.289 0.289 0 0 1-0.246-0.285c0-0.109 0.062-0.2 0.148-0.253-0.09-0.05-0.148-0.145-0.148-0.252C6.986 0.129 7.114 0 7.274 0h1.43c0.16 0 0.287 0.129 0.287 0.291 0 0.111-0.062 0.206-0.155 0.253 0.09 0.049 0.156 0.144 0.156 0.253a0.29 0.29 0 0 1-0.246 0.284l1.736 4.746c0.108 0.305 0.164 0.65 0.164 0.993v8.415a0.571 0.571 0 0 1-0.572 0.571H5.9A0.57 0.57 0 0 1 5.332 15.235V6.822c0-0.344 0.056-0.688 0.16-0.995l1.74-4.745z" fill-rule="evenodd"></path></g><g id="SvgjsG1030"><path d="M1.971 11.92H0.64v2.621C0.64 15.344 1.362 16 2.249 16h11.653c0.887 0 1.61-0.656 1.61-1.459V11.92h-1.333v2.343c0 0.294-0.264 0.533-0.589 0.533H2.558c-0.326 0-0.587-0.239-0.587-0.533V11.92z"></path><path d="M12.555 13.673v-2.066L3.585 8.611v2.067z m-6.901-5.06c-0.309-0.348-2.359-2.718-0.291-4.769C7.088 2.133 7.339 0.696 6.758 0c0 0 4.389 1.804 1.808 5.988-0.442 0.71-1.546 1.549-0.969 3.278l-1.943-0.653z m2.695 0.568c-0.094-0.351-0.515-1.115 0.769-2.636 0.686-0.81 0.944-2.012 1.006-2.463 0 0 2.274 1.303 0.012 4.492l-1.787 0.607z m0.483 0.489l3.723-1.243v2.065l-0.632 0.208zM7.308 12.614l-3.723 1.241v-2.066l0.633-0.206z"></path></g><g id="SvgjsG1031"><path d="M8.312 4.802l0 0.521c0.492-0.069 0.443-0.509 0-0.52z m-0.51-0.627V3.715c-0.365 0.064-0.358 0.454 0 0.46z"></path><path d="M8.055 2.506c-1.128 0-2.044 0.915-2.044 2.043 0 1.129 0.915 2.044 2.045 2.044 1.129 0 2.043-0.915 2.043-2.044 0-1.128-0.915-2.043-2.043-2.043z m0.251 3.336v0.364h-0.507v-0.37c-0.29-0.043-0.822-0.323-0.855-0.924h0.534c0.034 0.154 0.078 0.34 0.321 0.409l-0.001-0.605c-0.334-0.048-0.814-0.194-0.814-0.73 0-0.602 0.666-0.789 0.813-0.789v-0.364h0.502v0.364c0.338 0.02 0.83 0.302 0.83 0.84h-0.528c-0.014-0.16-0.137-0.317-0.296-0.327v0.554c0.403 0.041 0.877 0.195 0.877 0.738 0 0.473-0.475 0.818-0.877 0.84z m1.733 5.54c-1.129 0-2.044 0.915-2.043 2.044s0.915 2.043 2.043 2.043 2.043-0.915 2.043-2.043c0-1.129-0.915-2.044-2.043-2.044zM10.955 13.739v0.499h-0.636v0.701h-0.542V14.238h-0.68v-0.49h0.688l-0.894-1.576h0.593l0.551 0.972 0.597-0.972h0.547L10.293 13.739h0.662z m-7.36-4.673c-1.129 0-2.044 0.915-2.043 2.044S2.467 13.154 3.595 13.154s2.044-0.915 2.044-2.044-0.915-2.044-2.044-2.044z m0.065 1.654v0.486h-0.367v1.165H2.773v-1.162h-0.31v-0.484h0.31v-0.436c0-0.168 0.163-0.68 0.777-0.68 0.627 0 0.762 0.494 0.762 0.908h-0.511c0-0.265-0.037-0.404-0.246-0.404-0.226 0-0.262 0.155-0.262 0.4v0.206h0.366z m1.173 0.482c-0.421 0.052-0.516 0.276-0.517 0.554v0.616h-0.516V10.72h0.516v0.258c0.112-0.129 0.241-0.267 0.517-0.267v0.491z"></path><path d="M0 0.56v7.93h9.395c0.178 0.948 1.009 1.666 2.009 1.666s1.83-0.718 2.008-1.666H16V0.56H0z m11.195 7.221h0.464v0.441h-0.378c0.047 0.403-0.185 0.572-0.198 0.707h1.264v0.441H10.456v-0.441c0.215-0.144 0.327-0.508 0.258-0.703h-0.396v-0.448h0.318c-0.086-0.203-0.086-0.27-0.086-0.448s0.147-0.758 0.912-0.754c0.705 0.004 0.91 0.584 0.91 1l-0.537 0c-0.036-0.251-0.135-0.458-0.368-0.458-0.357 0-0.358 0.224-0.357 0.301s0.013 0.262 0.086 0.364z m3.297-0.798h-1.386c-0.366-0.551-0.992-0.914-1.703-0.914S10.067 6.432 9.701 6.982H1.508V2.068h12.984V6.982z"></path></g><g id="SvgjsG1043"><use xlink:href="#SvgjsG1023" transform="translate(0, 0) scale(2)" fill="rgba(199, 139, 94, 0.49)"></use><use xlink:href="#SvgjsG1024" transform="translate(0, 48) scale(2)" fill="rgba(199, 139, 94, 0.49)"></use><use xlink:href="#SvgjsG1025" transform="translate(0, 96) scale(2)" fill="rgba(199, 139, 94, 0.49)"></use><use xlink:href="#SvgjsG1026" transform="translate(0, 144) scale(2)" fill="rgba(199, 139, 94, 0.49)"></use><use xlink:href="#SvgjsG1027" transform="translate(0, 192) scale(2)" fill="rgba(199, 139, 94, 0.49)"></use><use xlink:href="#SvgjsG1028" transform="translate(0, 240) scale(2)" fill="rgba(199, 139, 94, 0.49)"></use><use xlink:href="#SvgjsG1029" transform="translate(0, 288) scale(2)" fill="rgba(199, 139, 94, 0.49)"></use><use xlink:href="#SvgjsG1030" transform="translate(0, 336) scale(2)" fill="rgba(199, 139, 94, 0.49)"></use><use xlink:href="#SvgjsG1028" transform="translate(0, 384) scale(2)" fill="rgba(199, 139, 94, 0.49)"></use><use xlink:href="#SvgjsG1025" transform="translate(0, 432) scale(2)" fill="rgba(199, 139, 94, 0.49)"></use><use xlink:href="#SvgjsG1031" transform="translate(48, 0) scale(2)" fill="rgba(199, 139, 94, 0.49)"></use><use xlink:href="#SvgjsG1032" transform="translate(48, 48) scale(2)" fill="rgba(199, 139, 94, 0.49)"></use><use xlink:href="#SvgjsG1025" transform="translate(48, 96) scale(2)" fill="rgba(199, 139, 94, 0.49)"></use><use xlink:href="#SvgjsG1033" transform="translate(48, 144) scale(2)" fill="rgba(199, 139, 94, 0.49)"></use><use xlink:href="#SvgjsG1034" transform="translate(48, 192) scale(2)" fill="rgba(199, 139, 94, 0.49)"></use><use xlink:href="#SvgjsG1026" transform="translate(48, 240) scale(2)" fill="rgba(199, 139, 94, 0.49)"></use><use xlink:href="#SvgjsG1033" transform="translate(48, 288) scale(2)" fill="rgba(199, 139, 94, 0.49)"></use><use xlink:href="#SvgjsG1035" transform="translate(48, 336) scale(2)" fill="rgba(199, 139, 94, 0.49)"></use><use xlink:href="#SvgjsG1036" transform="translate(48, 384) scale(2)" fill="rgba(199, 139, 94, 0.49)"></use><use xlink:href="#SvgjsG1037" transform="translate(48, 432) scale(2)" fill="rgba(199, 139, 94, 0.49)"></use><use xlink:href="#SvgjsG1033" transform="translate(96, 0) scale(2)" fill="rgba(199, 139, 94, 0.49)"></use><use xlink:href="#SvgjsG1037" transform="translate(96, 48) scale(2)" fill="rgba(199, 139, 94, 0.49)"></use><use xlink:href="#SvgjsG1025" transform="translate(96, 96) scale(2)" fill="rgba(199, 139, 94, 0.49)"></use><use xlink:href="#SvgjsG1038" transform="translate(96, 144) scale(2)" fill="rgba(199, 139, 94, 0.49)"></use><use xlink:href="#SvgjsG1026" transform="translate(96, 192) scale(2)" fill="rgba(199, 139, 94, 0.49)"></use><use xlink:href="#SvgjsG1025" transform="translate(96, 240) scale(2)" fill="rgba(199, 139, 94, 0.49)"></use><use xlink:href="#SvgjsG1037" transform="translate(96, 288) scale(2)" fill="rgba(199, 139, 94, 0.49)"></use><use xlink:href="#SvgjsG1031" transform="translate(96, 336) scale(2)" fill="rgba(199, 139, 94, 0.49)"></use><use xlink:href="#SvgjsG1035" transform="translate(96, 384) scale(2)" fill="rgba(199, 139, 94, 0.49)"></use><use xlink:href="#SvgjsG1029" transform="translate(96, 432) scale(2)" fill="rgba(199, 139, 94, 0.49)"></use><use xlink:href="#SvgjsG1039" transform="translate(144, 0) scale(2)" fill="rgba(199, 139, 94, 0.49)"></use><use xlink:href="#SvgjsG1038" transform="translate(144, 48) scale(2)" fill="rgba(199, 139, 94, 0.49)"></use><use xlink:href="#SvgjsG1040" transform="translate(144, 96) scale(2)" fill="rgba(199, 139, 94, 0.49)"></use><use xlink:href="#SvgjsG1027" transform="translate(144, 144) scale(2)" fill="rgba(199, 139, 94, 0.49)"></use><use xlink:href="#SvgjsG1030" transform="translate(144, 192) scale(2)" fill="rgba(199, 139, 94, 0.49)"></use><use xlink:href="#SvgjsG1034" transform="translate(144, 240) scale(2)" fill="rgba(199, 139, 94, 0.49)"></use><use xlink:href="#SvgjsG1035" transform="translate(144, 288) scale(2)" fill="rgba(199, 139, 94, 0.49)"></use><use xlink:href="#SvgjsG1039" transform="translate(144, 336) scale(2)" fill="rgba(199, 139, 94, 0.49)"></use><use xlink:href="#SvgjsG1027" transform="translate(144, 384) scale(2)" fill="rgba(199, 139, 94, 0.49)"></use><use xlink:href="#SvgjsG1036" transform="translate(144, 432) scale(2)" fill="rgba(199, 139, 94, 0.49)"></use><use xlink:href="#SvgjsG1023" transform="translate(192, 0) scale(2)" fill="rgba(199, 139, 94, 0.49)"></use><use xlink:href="#SvgjsG1029" transform="translate(192, 48) scale(2)" fill="rgba(199, 139, 94, 0.49)"></use><use xlink:href="#SvgjsG1039" transform="translate(192, 96) scale(2)" fill="rgba(199, 139, 94, 0.49)"></use><use xlink:href="#SvgjsG1035" transform="translate(192, 144) scale(2)" fill="rgba(199, 139, 94, 0.49)"></use><use xlink:href="#SvgjsG1037" transform="translate(192, 192) scale(2)" fill="rgba(199, 139, 94, 0.49)"></use><use xlink:href="#SvgjsG1028" transform="translate(192, 240) scale(2)" fill="rgba(199, 139, 94, 0.49)"></use><use xlink:href="#SvgjsG1032" transform="translate(192, 288) scale(2)" fill="rgba(199, 139, 94, 0.49)"></use><use xlink:href="#SvgjsG1038" transform="translate(192, 336) scale(2)" fill="rgba(199, 139, 94, 0.49)"></use><use xlink:href="#SvgjsG1030" transform="translate(192, 384) scale(2)" fill="rgba(199, 139, 94, 0.49)"></use><use xlink:href="#SvgjsG1032" transform="translate(192, 432) scale(2)" fill="rgba(199, 139, 94, 0.49)"></use><use xlink:href="#SvgjsG1031" transform="translate(240, 0) scale(2)" fill="rgba(199, 139, 94, 0.49)"></use><use xlink:href="#SvgjsG1041" transform="translate(240, 48) scale(2)" fill="rgba(199, 139, 94, 0.49)"></use><use xlink:href="#SvgjsG1037" transform="translate(240, 96) scale(2)" fill="rgba(199, 139, 94, 0.49)"></use><use xlink:href="#SvgjsG1039" transform="translate(240, 144) scale(2)" fill="rgba(199, 139, 94, 0.49)"></use><use xlink:href="#SvgjsG1029" transform="translate(240, 192) scale(2)" fill="rgba(199, 139, 94, 0.49)"></use><use xlink:href="#SvgjsG1042" transform="translate(240, 240) scale(2)" fill="rgba(199, 139, 94, 0.49)"></use><use xlink:href="#SvgjsG1030" transform="translate(240, 288) scale(2)" fill="rgba(199, 139, 94, 0.49)"></use><use xlink:href="#SvgjsG1024" transform="translate(240, 336) scale(2)" fill="rgba(199, 139, 94, 0.49)"></use><use xlink:href="#SvgjsG1039" transform="translate(240, 384) scale(2)" fill="rgba(199, 139, 94, 0.49)"></use><use xlink:href="#SvgjsG1037" transform="translate(240, 432) scale(2)" fill="rgba(199, 139, 94, 0.49)"></use><use xlink:href="#SvgjsG1036" transform="translate(288, 0) scale(2)" fill="rgba(199, 139, 94, 0.49)"></use><use xlink:href="#SvgjsG1035" transform="translate(288, 48) scale(2)" fill="rgba(199, 139, 94, 0.49)"></use><use xlink:href="#SvgjsG1028" transform="translate(288, 96) scale(2)" fill="rgba(199, 139, 94, 0.49)"></use><use xlink:href="#SvgjsG1041" transform="translate(288, 144) scale(2)" fill="rgba(199, 139, 94, 0.49)"></use><use xlink:href="#SvgjsG1032" transform="translate(288, 192) scale(2)" fill="rgba(199, 139, 94, 0.49)"></use><use xlink:href="#SvgjsG1032" transform="translate(288, 240) scale(2)" fill="rgba(199, 139, 94, 0.49)"></use><use xlink:href="#SvgjsG1023" transform="translate(288, 288) scale(2)" fill="rgba(199, 139, 94, 0.49)"></use><use xlink:href="#SvgjsG1038" transform="translate(288, 336) scale(2)" fill="rgba(199, 139, 94, 0.49)"></use><use xlink:href="#SvgjsG1024" transform="translate(288, 384) scale(2)" fill="rgba(199, 139, 94, 0.49)"></use><use xlink:href="#SvgjsG1030" transform="translate(288, 432) scale(2)" fill="rgba(199, 139, 94, 0.49)"></use><use xlink:href="#SvgjsG1040" transform="translate(336, 0) scale(2)" fill="rgba(199, 139, 94, 0.49)"></use><use xlink:href="#SvgjsG1030" transform="translate(336, 48) scale(2)" fill="rgba(199, 139, 94, 0.49)"></use><use xlink:href="#SvgjsG1035" transform="translate(336, 96) scale(2)" fill="rgba(199, 139, 94, 0.49)"></use><use xlink:href="#SvgjsG1032" transform="translate(336, 144) scale(2)" fill="rgba(199, 139, 94, 0.49)"></use><use xlink:href="#SvgjsG1026" transform="translate(336, 192) scale(2)" fill="rgba(199, 139, 94, 0.49)"></use><use xlink:href="#SvgjsG1024" transform="translate(336, 240) scale(2)" fill="rgba(199, 139, 94, 0.49)"></use><use xlink:href="#SvgjsG1042" transform="translate(336, 288) scale(2)" fill="rgba(199, 139, 94, 0.49)"></use><use xlink:href="#SvgjsG1033" transform="translate(336, 336) scale(2)" fill="rgba(199, 139, 94, 0.49)"></use><use xlink:href="#SvgjsG1042" transform="translate(336, 384) scale(2)" fill="rgba(199, 139, 94, 0.49)"></use><use xlink:href="#SvgjsG1028" transform="translate(336, 432) scale(2)" fill="rgba(199, 139, 94, 0.49)"></use><use xlink:href="#SvgjsG1036" transform="translate(384, 0) scale(2)" fill="rgba(199, 139, 94, 0.49)"></use><use xlink:href="#SvgjsG1037" transform="translate(384, 48) scale(2)" fill="rgba(199, 139, 94, 0.49)"></use><use xlink:href="#SvgjsG1025" transform="translate(384, 96) scale(2)" fill="rgba(199, 139, 94, 0.49)"></use><use xlink:href="#SvgjsG1039" transform="translate(384, 144) scale(2)" fill="rgba(199, 139, 94, 0.49)"></use><use xlink:href="#SvgjsG1027" transform="translate(384, 192) scale(2)" fill="rgba(199, 139, 94, 0.49)"></use><use xlink:href="#SvgjsG1040" transform="translate(384, 240) scale(2)" fill="rgba(199, 139, 94, 0.49)"></use><use xlink:href="#SvgjsG1033" transform="translate(384, 288) scale(2)" fill="rgba(199, 139, 94, 0.49)"></use><use xlink:href="#SvgjsG1034" transform="translate(384, 336) scale(2)" fill="rgba(199, 139, 94, 0.49)"></use><use xlink:href="#SvgjsG1028" transform="translate(384, 384) scale(2)" fill="rgba(199, 139, 94, 0.49)"></use><use xlink:href="#SvgjsG1024" transform="translate(384, 432) scale(2)" fill="rgba(199, 139, 94, 0.49)"></use><use xlink:href="#SvgjsG1042" transform="translate(432, 0) scale(2)" fill="rgba(199, 139, 94, 0.49)"></use><use xlink:href="#SvgjsG1027" transform="translate(432, 48) scale(2)" fill="rgba(199, 139, 94, 0.49)"></use><use xlink:href="#SvgjsG1027" transform="translate(432, 96) scale(2)" fill="rgba(199, 139, 94, 0.49)"></use><use xlink:href="#SvgjsG1033" transform="translate(432, 144) scale(2)" fill="rgba(199, 139, 94, 0.49)"></use><use xlink:href="#SvgjsG1026" transform="translate(432, 192) scale(2)" fill="rgba(199, 139, 94, 0.49)"></use><use xlink:href="#SvgjsG1041" transform="translate(432, 240) scale(2)" fill="rgba(199, 139, 94, 0.49)"></use><use xlink:href="#SvgjsG1038" transform="translate(432, 288) scale(2)" fill="rgba(199, 139, 94, 0.49)"></use><use xlink:href="#SvgjsG1032" transform="translate(432, 336) scale(2)" fill="rgba(199, 139, 94, 0.49)"></use><use xlink:href="#SvgjsG1025" transform="translate(432, 384) scale(2)" fill="rgba(199, 139, 94, 0.49)"></use><use xlink:href="#SvgjsG1042" transform="translate(432, 432) scale(2)" fill="rgba(199, 139, 94, 0.49)"></use></g></defs></svg>